<svg width="326" height="521" viewBox="0 0 326 521" fill="none" xmlns="http://www.w3.org/2000/svg">
<path d="M154.191 348.296C152.811 348.283 151.416 348.271 150.046 348.22L150.088 346.554C151.444 346.605 152.831 346.628 154.191 346.629C155.557 346.629 156.949 346.602 158.329 346.549L158.374 348.214C156.978 348.268 155.571 348.296 154.191 348.296ZM141.736 347.592C138.984 347.278 136.205 346.852 133.476 346.327L133.694 344.682C136.394 345.201 139.144 345.623 141.867 345.934L141.736 347.592ZM166.682 347.574L166.551 345.916C169.273 345.601 172.022 345.176 174.722 344.652L174.942 346.297C172.212 346.827 169.434 347.257 166.682 347.574H166.682ZM125.3 344.426C122.605 343.689 119.894 342.837 117.242 341.892L117.634 340.294C120.258 341.229 122.94 342.072 125.606 342.8L125.3 344.426ZM183.116 344.384L182.809 342.76C185.481 342.025 188.162 341.178 190.778 340.242L191.171 341.84C188.527 342.786 185.817 343.642 183.116 344.384H183.116ZM109.336 338.738C106.736 337.586 104.135 336.319 101.604 334.969L102.164 333.445C104.667 334.78 107.24 336.035 109.813 337.174L109.336 338.738ZM199.074 338.673L198.596 337.109C201.152 335.974 203.717 334.72 206.218 333.382L206.779 334.905C204.25 336.258 201.658 337.525 199.073 338.673H199.074ZM94.0927 330.607C91.646 329.068 89.2025 327.408 86.831 325.674L87.5478 324.249C89.8944 325.965 92.3115 327.606 94.7323 329.129L94.0927 330.607ZM214.269 330.546L213.629 329.069C216.044 327.547 218.456 325.906 220.796 324.191L221.514 325.615C219.149 327.348 216.711 329.007 214.269 330.546H214.269ZM79.8483 320.192C77.5821 318.285 75.3361 316.263 73.1721 314.183L74.0341 312.88C76.1751 314.938 78.3975 316.938 80.6394 318.825L79.8483 320.192ZM228.486 320.132L227.693 318.767C229.935 316.878 232.154 314.878 234.29 312.822L235.152 314.124C232.994 316.202 230.751 318.223 228.486 320.132V320.132ZM66.8284 307.673C64.7798 305.431 62.7657 303.082 60.843 300.692L61.8352 299.531C63.7377 301.896 65.7305 304.22 67.7578 306.439L66.8284 307.673ZM241.49 307.615L240.56 306.381C242.582 304.167 244.573 301.842 246.478 299.471L247.471 300.63C245.546 303.026 243.533 305.376 241.49 307.615V307.615ZM55.2394 293.267C53.4456 290.732 51.6968 288.095 50.0407 285.429L51.1473 284.43C52.7858 287.068 54.5161 289.677 56.291 292.185L55.2394 293.267ZM253.073 293.198L252.021 292.118C253.796 289.607 255.526 286.995 257.165 284.353L258.272 285.351C256.616 288.021 254.867 290.661 253.073 293.198V293.198ZM45.2683 277.207C43.756 274.415 42.3007 271.532 40.9427 268.638L42.1462 267.818C43.4894 270.681 44.9294 273.534 46.4259 276.296L45.2683 277.207ZM263.046 277.117L261.887 276.207C263.385 273.44 264.824 270.582 266.168 267.712L267.372 268.531C266.014 271.432 264.558 274.321 263.046 277.117V277.117ZM37.0825 259.754C35.8797 256.754 34.7434 253.672 33.7053 250.591L34.9857 249.965C36.013 253.011 37.1372 256.061 38.3272 259.028L37.0825 259.754ZM271.234 259.624L269.989 258.899C271.179 255.928 272.303 252.87 273.332 249.809L274.613 250.434C273.573 253.528 272.437 256.62 271.234 259.624V259.624ZM30.8197 241.174C29.9453 238.009 29.1465 234.771 28.4452 231.55L29.7823 231.127C30.4758 234.313 31.2663 237.517 32.1312 240.647L30.8197 241.174ZM277.493 240.998L276.181 240.474C277.041 237.347 277.828 234.142 278.52 230.95L279.858 231.371C279.158 234.599 278.362 237.837 277.493 240.998V240.998ZM26.5907 221.765C26.0625 218.495 25.6157 215.162 25.2623 211.855L26.6332 211.642C26.9828 214.913 27.4249 218.211 27.9474 221.446L26.5907 221.765ZM281.703 221.582L280.346 221.266C280.864 218.032 281.304 214.733 281.65 211.459L283.022 211.671C282.671 214.979 282.227 218.314 281.703 221.582V221.582ZM24.4631 201.865C24.286 198.543 24.1945 195.167 24.1915 191.83L25.5738 191.828C25.5769 195.13 25.6673 198.471 25.8428 201.757L24.4631 201.865ZM283.811 201.678L282.432 201.572C282.604 198.289 282.691 194.949 282.691 191.646L282.69 191.281H284.073L284.073 191.64C284.073 194.984 283.985 198.359 283.811 201.678ZM25.8236 181.901L24.4439 181.798C24.6153 178.47 24.8776 175.108 25.2235 171.804L26.5951 172.013C26.2525 175.282 25.993 178.609 25.8236 181.901ZM282.413 181.354C282.233 178.06 281.964 174.735 281.612 171.47L282.983 171.255C283.338 174.555 283.611 177.915 283.792 181.245L282.413 181.354ZM27.8897 162.206L26.5323 161.891C27.0537 158.62 27.6714 155.326 28.3672 152.099L29.705 152.519C29.0165 155.711 28.4057 158.97 27.8897 162.206ZM280.287 161.668C279.761 158.431 279.14 155.174 278.443 151.989L279.78 151.564C280.484 154.784 281.111 158.075 281.644 161.348L280.287 161.668ZM32.0357 142.992L30.7229 142.47C31.5906 139.303 32.5565 136.127 33.5942 133.029L34.876 133.653C33.8494 136.718 32.8939 139.86 32.0357 142.992ZM276.086 142.473C275.218 139.345 274.255 136.212 273.223 133.16L274.503 132.531C275.546 135.616 276.52 138.783 277.397 141.944L276.086 142.473ZM38.2104 124.556L36.9644 123.833C38.1635 120.828 39.4601 117.829 40.8178 114.921L42.0227 115.739C40.6791 118.616 39.3967 121.582 38.2104 124.556ZM269.873 124.101C268.682 121.142 267.395 118.187 266.045 115.317L267.248 114.495C268.612 117.395 269.914 120.383 271.116 123.374L269.873 124.101ZM46.2953 107.237L45.1363 106.328C46.6439 103.535 48.2473 100.762 49.9017 98.0876L51.01 99.0835C49.3732 101.73 47.7866 104.473 46.2953 107.237ZM261.757 106.845C260.261 104.091 258.671 101.356 257.028 98.7174L258.133 97.7173C259.794 100.385 261.402 103.148 262.914 105.932L261.757 106.845ZM56.1459 91.3122L55.0929 90.2332C56.8833 87.694 58.7654 85.191 60.6871 82.7942L61.6813 83.9521C59.7799 86.3237 57.9177 88.8002 56.1459 91.3122ZM251.876 90.9688C250.099 88.4638 248.231 85.9945 246.325 83.6299L247.315 82.4687C249.242 84.8582 251.13 87.3538 252.926 89.8857L251.876 90.9688ZM67.5931 77.0327L66.6623 75.8007C68.7079 73.5545 70.8381 71.3611 72.9933 69.2821L73.8573 70.5832C71.7247 72.6403 69.617 74.8104 67.5931 77.0327V77.0327ZM240.395 76.7304C238.368 74.5183 236.255 72.3547 234.112 70.3L234.973 68.9956C237.138 71.0727 239.274 73.2591 241.322 75.4952L240.395 76.7304ZM80.4481 64.6288L79.655 63.2642C81.9168 61.3532 84.2603 59.5057 86.6204 57.7725L87.3396 59.1957C85.0048 60.9106 82.6859 62.7386 80.4481 64.6288ZM227.502 64.3636C225.251 62.4754 222.925 60.6534 220.588 58.9483L221.303 57.5227C223.666 59.2457 226.017 61.0872 228.291 62.9957L227.502 64.3636ZM94.5024 54.3069L93.8605 52.8308C96.3043 51.2856 98.8233 49.8152 101.347 48.4608L101.909 49.9832C99.4122 51.323 96.9205 52.7779 94.5024 54.3069ZM213.399 54.0782C210.971 52.555 208.469 51.107 205.963 49.7741L206.521 48.2492C209.054 49.5963 211.583 51.0602 214.037 52.5997L213.399 54.0782ZM109.528 46.245L109.048 44.6818C111.64 43.526 114.297 42.4567 116.947 41.5043L117.342 43.1016C114.721 44.0435 112.092 45.1013 109.528 46.245H109.528ZM198.31 46.0558C195.741 44.9227 193.109 43.8763 190.486 42.9462L190.877 41.3472C193.527 42.2875 196.188 43.3453 198.786 44.491L198.31 46.0558ZM125.309 40.573L125 38.9488C127.69 38.2059 130.439 37.5586 133.172 37.0236L133.394 38.6689C130.69 39.1978 127.969 39.8382 125.309 40.573ZM182.512 40.4518C179.847 39.7276 177.125 39.0986 174.421 38.5819L174.638 36.9357C177.37 37.4581 180.122 38.094 182.816 38.826L182.512 40.4518ZM141.564 37.3934L141.43 35.7351C144.175 35.4141 146.97 35.1948 149.738 35.0837L149.784 36.7493C147.045 36.8592 144.279 37.0761 141.564 37.3934V37.3934ZM166.248 37.3418C163.528 37.0354 160.761 36.8304 158.025 36.7323L158.067 35.0667C160.832 35.1659 163.628 35.373 166.376 35.6826L166.248 37.3418Z" fill="#D0CDE1"/>
<path d="M149.294 78.3249C167.235 78.3249 181.779 60.7912 181.779 39.1624C181.779 17.5336 167.235 0 149.294 0C131.353 0 116.809 17.5336 116.809 39.1624C116.809 60.7912 131.353 78.3249 149.294 78.3249Z" fill="#315166"/>
<path d="M275.088 184.98C293.029 184.98 307.573 167.446 307.573 145.818C307.573 124.189 293.029 106.655 275.088 106.655C257.147 106.655 242.603 124.189 242.603 145.818C242.603 167.446 257.147 184.98 275.088 184.98Z" fill="#315166"/>
<path d="M235.691 348.296C253.632 348.296 268.176 330.762 268.176 309.133C268.176 287.504 253.632 269.971 235.691 269.971C217.75 269.971 203.206 287.504 203.206 309.133C203.206 330.762 217.75 348.296 235.691 348.296Z" fill="#315166"/>
<path d="M79.4852 354.962C97.4263 354.962 111.971 337.428 111.971 315.799C111.971 294.17 97.4263 276.637 79.4852 276.637C61.5441 276.637 47 294.17 47 315.799C47 337.428 61.5441 354.962 79.4852 354.962Z" fill="#315166"/>
<path d="M32.4853 184.98C50.4264 184.98 64.9705 167.446 64.9705 145.818C64.9705 124.189 50.4264 106.655 32.4853 106.655C14.5441 106.655 0 124.189 0 145.818C0 167.446 14.5441 184.98 32.4853 184.98Z" fill="#315166"/>
<path d="M163.215 36.0402H151.884C150.854 36.0402 149.865 35.5467 149.137 34.6684C148.408 33.7901 147.999 32.5989 147.999 31.3567V17.6967C147.999 17.6454 147.991 17.5947 147.974 17.5473C147.958 17.5 147.934 17.4569 147.904 17.4207C147.874 17.3845 147.838 17.3557 147.799 17.3361C147.76 17.3165 147.718 17.3064 147.675 17.3064H140.229C138.855 17.3064 137.538 17.9643 136.566 19.1354C135.595 20.3065 135.049 21.8948 135.049 23.551V54.7739C135.049 56.4301 135.595 58.0184 136.566 59.1895C137.538 60.3606 138.855 61.0185 140.229 61.0185H158.359C159.733 61.0185 161.05 60.3606 162.022 59.1895C162.993 58.0184 163.539 56.4301 163.539 54.7739V36.4304C163.539 36.3792 163.53 36.3284 163.514 36.2811C163.498 36.2337 163.474 36.1907 163.444 36.1545C163.414 36.1182 163.378 36.0895 163.339 36.0699C163.3 36.0503 163.257 36.0402 163.215 36.0402V36.0402ZM155.769 51.6516H142.819C142.476 51.6516 142.146 51.4872 141.903 51.1944C141.661 50.9016 141.524 50.5045 141.524 50.0905C141.524 49.6764 141.661 49.2794 141.903 48.9866C142.146 48.6938 142.476 48.5293 142.819 48.5293H155.769C156.112 48.5293 156.442 48.6938 156.685 48.9866C156.927 49.2794 157.064 49.6764 157.064 50.0905C157.064 50.5045 156.927 50.9016 156.685 51.1944C156.442 51.4872 156.112 51.6516 155.769 51.6516ZM155.769 43.8459H142.819C142.476 43.8459 142.146 43.6814 141.903 43.3886C141.661 43.0959 141.524 42.6988 141.524 42.2847C141.524 41.8707 141.661 41.4736 141.903 41.1808C142.146 40.8881 142.476 40.7236 142.819 40.7236H155.769C156.112 40.7236 156.442 40.8881 156.685 41.1808C156.927 41.4736 157.064 41.8707 157.064 42.2847C157.064 42.6988 156.927 43.0959 156.685 43.3886C156.442 43.6814 156.112 43.8459 155.769 43.8459Z" fill="white"/>
<path d="M162.504 32.5851L150.865 18.5533C150.842 18.5262 150.814 18.5077 150.782 18.5003C150.751 18.4928 150.718 18.4967 150.689 18.5114C150.659 18.5261 150.634 18.551 150.616 18.5829C150.599 18.6149 150.589 18.6524 150.589 18.6909V31.3567C150.589 31.7707 150.725 32.1678 150.968 32.4606C151.211 32.7534 151.54 32.9178 151.884 32.9178H162.39C162.422 32.9177 162.453 32.9061 162.48 32.8847C162.506 32.8632 162.527 32.8328 162.539 32.7973C162.551 32.7617 162.555 32.7226 162.548 32.6848C162.542 32.6471 162.527 32.6124 162.504 32.5851L162.504 32.5851Z" fill="white"/>
<path d="M240.39 301.419C239.991 301.419 239.605 301.586 239.298 301.89C238.99 302.195 238.779 302.619 238.702 303.09C238.624 303.561 238.685 304.05 238.873 304.473C239.061 304.897 239.364 305.228 239.732 305.412C240.101 305.595 240.51 305.619 240.891 305.48C241.272 305.34 241.601 305.046 241.822 304.646C242.044 304.247 242.143 303.767 242.104 303.29C242.065 302.812 241.889 302.365 241.607 302.026C241.447 301.833 241.258 301.68 241.049 301.576C240.84 301.472 240.616 301.418 240.39 301.419Z" fill="white"/>
<path d="M249.974 293.119V293.112C249.919 292.824 249.799 292.56 249.627 292.349C249.454 292.139 249.237 291.991 248.998 291.922C247.076 291.357 244.052 291.96 240.701 293.577C237.479 295.087 234.531 297.338 232.02 300.204C231.335 301.026 230.698 301.905 230.114 302.835C228.825 302.727 227.533 302.977 226.336 303.566C222.612 305.542 221.548 310.599 221.265 312.675C221.224 312.97 221.24 313.273 221.312 313.559C221.384 313.845 221.509 314.108 221.679 314.326C221.849 314.544 222.058 314.712 222.29 314.817C222.523 314.922 222.772 314.961 223.019 314.93H223.027L227.176 314.384C227.181 314.448 227.187 314.506 227.192 314.56C227.245 315.17 227.47 315.738 227.83 316.171L229.855 318.614C230.213 319.048 230.685 319.32 231.191 319.384L231.329 319.402L230.878 324.398V324.408C230.856 324.662 230.876 324.918 230.937 325.163C230.997 325.408 231.097 325.636 231.23 325.834C231.364 326.032 231.529 326.196 231.715 326.318C231.901 326.439 232.105 326.515 232.316 326.541C232.366 326.548 232.415 326.551 232.465 326.552C232.555 326.552 232.645 326.543 232.733 326.525C234.465 326.189 238.658 324.923 240.292 320.409C240.777 318.971 240.985 317.42 240.902 315.872C241.676 315.17 242.408 314.402 243.092 313.574C245.467 310.577 247.336 307.05 248.594 303.191C249.929 299.198 250.431 295.525 249.974 293.119ZM243.068 306.718C242.538 307.357 241.863 307.793 241.128 307.97C240.393 308.147 239.63 308.057 238.938 307.711C238.245 307.366 237.652 306.78 237.236 306.029C236.819 305.278 236.596 304.394 236.596 303.49C236.595 302.587 236.817 301.703 237.233 300.951C237.65 300.199 238.241 299.613 238.934 299.267C239.627 298.921 240.389 298.83 241.124 299.005C241.86 299.181 242.535 299.616 243.066 300.255L243.068 300.258C243.779 301.102 244.182 302.251 244.19 303.454C244.197 304.656 243.808 305.813 243.109 306.669L243.068 306.718Z" fill="white"/>
<path d="M229.623 319.276C229.373 319.239 229.121 319.313 228.913 319.484C228.501 319.824 228.087 320.16 227.669 320.487C227.487 320.628 227.272 320.691 227.057 320.666C226.842 320.642 226.641 320.531 226.484 320.351C226.328 320.172 226.227 319.935 226.196 319.677C226.165 319.42 226.207 319.157 226.314 318.932L227.098 317.299C227.21 317.101 227.273 316.869 227.278 316.63C227.283 316.39 227.231 316.154 227.128 315.95C227.024 315.745 226.875 315.581 226.696 315.477C226.517 315.373 226.317 315.333 226.12 315.362C225.25 315.494 224.442 315.972 223.822 316.72C223.586 317.005 222.868 317.871 222.482 321.172C222.372 322.12 222.302 323.075 222.274 324.031C222.27 324.195 222.294 324.357 222.342 324.51C222.391 324.662 222.464 324.802 222.557 324.92C222.651 325.039 222.763 325.134 222.886 325.2C223.01 325.266 223.144 325.303 223.279 325.307C223.288 325.307 223.297 325.307 223.306 325.307H223.332C224.126 325.274 224.918 325.19 225.705 325.059C228.445 324.592 229.163 323.726 229.4 323.441C230.022 322.694 230.418 321.714 230.521 320.662C230.554 320.335 230.478 320.005 230.31 319.745C230.141 319.485 229.894 319.317 229.623 319.276V319.276Z" fill="white"/>
<path d="M68.3053 337.08H65.9516C65.4834 337.08 65.0345 336.856 64.7034 336.457C64.3724 336.058 64.1864 335.516 64.1864 334.952V322.183C64.1864 321.619 64.3724 321.078 64.7034 320.679C65.0345 320.28 65.4834 320.055 65.9516 320.055H68.3053C68.7735 320.055 69.2225 320.28 69.5535 320.679C69.8846 321.078 70.0706 321.619 70.0706 322.183V334.952C70.0706 335.516 69.8846 336.058 69.5535 336.457C69.2225 336.856 68.7735 337.08 68.3053 337.08V337.08Z" fill="white"/>
<path d="M84.781 337.08H82.4273C81.9591 337.08 81.5101 336.856 81.1791 336.457C80.848 336.058 80.662 335.516 80.662 334.952V313.671C80.662 313.107 80.848 312.565 81.1791 312.166C81.5101 311.767 81.9591 311.543 82.4273 311.543H84.781C85.2492 311.543 85.6982 311.767 86.0292 312.166C86.3603 312.565 86.5462 313.107 86.5462 313.671V334.952C86.5462 335.516 86.3603 336.058 86.0292 336.457C85.6982 336.856 85.2492 337.08 84.781 337.08V337.08Z" fill="white"/>
<path d="M93.0188 337.08H90.6652C90.197 337.08 89.748 336.856 89.4169 336.457C89.0859 336.058 88.8999 335.516 88.8999 334.952V303.74C88.8999 303.176 89.0859 302.634 89.4169 302.235C89.748 301.836 90.197 301.612 90.6652 301.612H93.0188C93.487 301.612 93.936 301.836 94.2671 302.235C94.5981 302.634 94.7841 303.176 94.7841 303.74V334.952C94.7841 335.516 94.5981 336.058 94.2671 336.457C93.936 336.856 93.487 337.08 93.0188 337.08V337.08Z" fill="white"/>
<path d="M76.5431 337.08H74.1895C73.7213 337.08 73.2723 336.856 72.9413 336.457C72.6102 336.058 72.4242 335.516 72.4242 334.952V296.646C72.4242 296.082 72.6102 295.541 72.9413 295.142C73.2723 294.743 73.7213 294.518 74.1895 294.518H76.5432C77.0113 294.518 77.4603 294.743 77.7914 295.142C78.1224 295.541 78.3084 296.082 78.3084 296.646V334.952C78.3084 335.231 78.2628 335.508 78.174 335.766C78.0853 336.025 77.9553 336.259 77.7914 336.457C77.6275 336.654 77.4329 336.811 77.2187 336.918C77.0045 337.025 76.775 337.08 76.5431 337.08V337.08Z" fill="white"/>
<path d="M276.644 144.792L274.963 142.764C274.577 142.299 274.055 142.038 273.511 142.036C272.966 142.034 272.443 142.293 272.055 142.755L260.364 155.762C259.935 156.22 259.673 156.863 259.633 157.552C259.621 157.895 259.667 158.236 259.769 158.556C259.871 158.876 260.027 159.167 260.227 159.411L262.738 162.472L262.743 162.478C263.131 162.944 263.656 163.207 264.204 163.209H264.28C264.564 163.19 264.842 163.103 265.098 162.955C265.354 162.806 265.583 162.598 265.772 162.342L276.637 148.312C277.025 147.848 277.245 147.217 277.247 146.559C277.249 145.9 277.035 145.267 276.65 144.799L276.644 144.792Z" fill="white"/>
<path d="M290.159 140.693L290.139 140.669L287.932 138.036C287.802 137.88 287.649 137.757 287.48 137.674C287.311 137.591 287.13 137.548 286.948 137.55C286.652 137.55 286.364 137.662 286.124 137.871C286.124 137.838 286.128 137.805 286.13 137.776C286.219 137.096 286.1 136.4 285.795 135.818C285.308 135.028 284.775 134.282 284.197 133.587L284.192 133.581C282.579 131.714 280.683 130.24 278.607 129.237C277.523 128.701 276.361 128.425 275.189 128.426C273.671 128.409 272.196 129.032 271.019 130.187C270.683 130.573 270.378 130.994 270.105 131.446C269.975 131.663 269.907 131.924 269.909 132.192C269.912 132.459 269.987 132.718 270.122 132.931C270.257 133.143 270.445 133.297 270.658 133.37C270.872 133.443 271.099 133.431 271.306 133.336C271.487 133.255 271.672 133.186 271.859 133.132C272.249 133.032 272.65 133.002 273.047 133.043C273.872 133.146 274.661 133.495 275.346 134.059C275.73 134.448 276.035 134.938 276.239 135.491C276.442 136.043 276.539 136.645 276.522 137.249C276.236 138.231 275.799 139.139 275.234 139.926C275.083 140.166 275.01 140.463 275.027 140.762C275.044 141.062 275.151 141.344 275.327 141.557L277.543 144.228C277.73 144.453 277.98 144.584 278.244 144.593C278.507 144.602 278.764 144.488 278.96 144.276C279.587 143.602 280.541 142.585 280.875 142.335C281.16 142.105 281.483 141.952 281.822 141.885C282.074 141.855 282.328 141.92 282.549 142.07C282.55 142.083 282.549 142.097 282.545 142.109C282.542 142.122 282.536 142.134 282.529 142.144L282.412 142.278L282.392 142.3C282.132 142.612 281.985 143.037 281.984 143.48C281.984 143.923 282.129 144.349 282.389 144.663L282.395 144.671L284.602 147.304C284.731 147.459 284.885 147.582 285.054 147.665C285.223 147.748 285.403 147.79 285.586 147.789C285.952 147.79 286.304 147.617 286.566 147.307L290.141 143.051C290.153 143.036 290.165 143.021 290.177 143.005C290.416 142.688 290.548 142.274 290.544 141.845C290.541 141.416 290.403 141.005 290.159 140.693Z" fill="white"/>
<path d="M37.6431 143.486C37.388 143.486 37.1387 143.395 36.9267 143.224C36.7147 143.053 36.5494 142.81 36.4518 142.526C36.3542 142.242 36.3287 141.93 36.3784 141.628C36.4282 141.327 36.551 141.05 36.7313 140.832L39.6878 137.268L36.7313 133.704C36.4895 133.412 36.3537 133.017 36.3537 132.604C36.3537 132.192 36.4895 131.797 36.7313 131.505C36.9731 131.214 37.3011 131.05 37.6431 131.05C37.985 131.05 38.313 131.214 38.5548 131.505L42.4232 136.169C42.5429 136.313 42.6379 136.484 42.7027 136.673C42.7675 136.862 42.8009 137.064 42.8009 137.268C42.8009 137.472 42.7675 137.674 42.7027 137.863C42.6379 138.051 42.5429 138.223 42.4232 138.367L38.5548 143.03C38.4352 143.175 38.2931 143.29 38.1366 143.368C37.9802 143.446 37.8124 143.486 37.6431 143.486Z" fill="white"/>
<path d="M17.0119 148.149C16.8425 148.149 16.6749 148.109 16.5184 148.031C16.362 147.953 16.2198 147.838 16.1001 147.694C15.9803 147.55 15.8854 147.378 15.8206 147.19C15.7558 147.001 15.7224 146.799 15.7224 146.595V145.04C15.7325 142.571 16.5504 140.207 17.9983 138.46C19.4462 136.714 21.4072 135.727 23.4553 135.713H40.222C40.564 135.713 40.892 135.877 41.1338 136.169C41.3756 136.46 41.5115 136.856 41.5115 137.268C41.5115 137.68 41.3756 138.076 41.1338 138.367C40.892 138.659 40.564 138.822 40.222 138.822H23.4591C22.093 138.832 20.7852 139.491 19.8196 140.656C18.854 141.821 18.3084 143.398 18.3013 145.045V146.595C18.3013 146.799 18.268 147.001 18.2032 147.19C18.1384 147.378 18.0434 147.55 17.9237 147.694C17.8039 147.838 17.6618 147.953 17.5053 148.031C17.3489 148.109 17.1812 148.149 17.0119 148.149V148.149Z" fill="white"/>
<path d="M27.3275 160.585C27.1581 160.585 26.9904 160.545 26.8339 160.467C26.6774 160.389 26.5353 160.274 26.4157 160.13L22.5473 155.466C22.4276 155.322 22.3326 155.151 22.2678 154.962C22.203 154.774 22.1696 154.571 22.1696 154.367C22.1696 154.163 22.203 153.961 22.2678 153.772C22.3326 153.584 22.4276 153.412 22.5473 153.268L26.4157 148.605C26.6576 148.314 26.9854 148.15 27.3272 148.15C27.669 148.151 27.9967 148.314 28.2384 148.606C28.4801 148.897 28.6159 149.292 28.616 149.704C28.6162 150.116 28.4807 150.511 28.2392 150.803L25.2827 154.367L28.2392 157.932C28.4195 158.149 28.5423 158.426 28.5921 158.727C28.6418 159.029 28.6163 159.342 28.5187 159.626C28.4211 159.91 28.2559 160.152 28.0438 160.323C27.8318 160.494 27.5825 160.585 27.3275 160.585Z" fill="white"/>
<path d="M24.7486 155.922C24.4066 155.922 24.0786 155.758 23.8368 155.466C23.595 155.175 23.4591 154.78 23.4591 154.367C23.4591 153.955 23.595 153.56 23.8368 153.268C24.0786 152.977 24.4066 152.813 24.7486 152.813H41.5114C42.8775 152.803 44.1853 152.144 45.1509 150.979C46.1166 149.814 46.6621 148.237 46.6692 146.59V145.04C46.6692 144.628 46.8051 144.233 47.0469 143.941C47.2887 143.65 47.6167 143.486 47.9587 143.486C48.3006 143.486 48.6286 143.65 48.8704 143.941C49.1123 144.233 49.2481 144.628 49.2481 145.04V146.595C49.238 149.064 48.4202 151.428 46.9723 153.175C45.5244 154.921 43.5633 155.908 41.5152 155.922L24.7486 155.922Z" fill="white"/>
<path d="M28.728 495.576L14.904 460.248C13.9227 457.816 12.9413 456.131 11.96 455.192C10.9787 454.253 9.848 453.699 8.568 453.528V452.248C8.73867 452.248 9.16533 452.227 9.848 452.184C10.488 452.141 10.9573 452.12 11.256 452.12C12.7493 452.12 14.2853 452.291 15.864 452.632C17.4427 452.931 18.936 453.656 20.344 454.808C21.752 455.96 22.9467 457.773 23.928 460.248L32.568 482.328L38.328 465.944L36.088 460.248C35.1067 457.816 34.04 456.131 32.888 455.192C31.7787 454.253 30.584 453.699 29.304 453.528V452.248C29.4747 452.248 29.8587 452.227 30.456 452.184C31.0533 452.141 31.5013 452.12 31.8 452.12C33.2933 452.12 34.8293 452.291 36.408 452.632C37.9867 452.973 39.48 453.72 40.888 454.872C42.296 455.981 43.4907 457.773 44.472 460.248L53.624 483.544L64.568 452.76H67.64L52.472 495.576H49.912L40.056 470.488L31.288 495.576H28.728ZM82.664 495.64C79.5067 495.64 76.776 494.957 74.472 493.592C72.168 492.184 70.3973 490.285 69.16 487.896C67.9227 485.507 67.304 482.861 67.304 479.96C67.304 477.016 67.9227 474.371 69.16 472.024C70.3973 469.635 72.168 467.757 74.472 466.392C76.776 464.984 79.5067 464.28 82.664 464.28C85.864 464.28 88.5947 464.984 90.856 466.392C93.16 467.757 94.9307 469.635 96.168 472.024C97.4053 474.371 98.024 477.016 98.024 479.96C98.024 482.861 97.4053 485.507 96.168 487.896C94.9307 490.285 93.16 492.184 90.856 493.592C88.5947 494.957 85.864 495.64 82.664 495.64ZM82.664 492.76C84.1573 492.76 85.3947 492.205 86.376 491.096C87.4 489.987 88.1467 488.472 88.616 486.552C89.128 484.589 89.384 482.392 89.384 479.96C89.384 477.485 89.128 475.288 88.616 473.368C88.1467 471.448 87.4 469.933 86.376 468.824C85.3947 467.715 84.1573 467.16 82.664 467.16C81.1707 467.16 79.912 467.715 78.888 468.824C77.9067 469.933 77.16 471.448 76.648 473.368C76.1787 475.288 75.944 477.485 75.944 479.96C75.944 482.392 76.1787 484.589 76.648 486.552C77.16 488.472 77.9067 489.987 78.888 491.096C79.912 492.205 81.1707 492.76 82.664 492.76ZM105.433 495V473.24C105.433 471.32 105.177 469.784 104.665 468.632C104.153 467.437 102.937 466.84 101.017 466.84H100.377V464.92H106.713C108.163 464.92 109.294 465.112 110.105 465.496C110.958 465.837 111.619 466.435 112.089 467.288C112.857 466.605 113.902 465.944 115.225 465.304C116.59 464.621 118.233 464.28 120.153 464.28C121.091 464.28 121.945 464.387 122.713 464.6C123.481 464.813 124.142 465.133 124.697 465.56C125.422 466.072 125.955 466.691 126.297 467.416C126.681 468.141 126.873 468.483 126.873 468.44L123.609 470.936C123.225 470.381 122.649 469.827 121.881 469.272C121.155 468.717 120.259 468.44 119.193 468.44C117.827 468.44 116.675 468.632 115.737 469.016C114.798 469.4 114.051 469.869 113.497 470.424C113.582 471.192 113.646 471.811 113.689 472.28C113.731 472.749 113.753 473.155 113.753 473.496V495H105.433ZM154.903 495.64C153.111 495.64 151.425 495.277 149.847 494.552C148.268 493.784 146.775 492.44 145.367 490.52L139.223 482.456V495H130.903V461.08C130.903 459.16 130.625 457.624 130.071 456.472C129.559 455.277 128.342 454.68 126.422 454.68H125.782V452.76H133.463C134.956 452.76 136.108 453.016 136.919 453.528C137.772 454.04 138.369 454.893 138.711 456.088C139.052 457.283 139.223 458.947 139.223 461.08V479.32L146.967 469.848C148.289 468.269 149.591 467.053 150.871 466.2C152.151 465.347 153.921 464.92 156.183 464.92H157.463V466.584C156.183 466.584 155.031 466.84 154.007 467.352C152.983 467.864 152.001 468.675 151.063 469.784L144.855 477.336L153.367 488.6C154.476 490.093 155.521 491.224 156.503 491.992C157.484 492.76 158.423 493.251 159.319 493.464V495C158.977 495.171 158.359 495.32 157.463 495.448C156.567 495.576 155.713 495.64 154.903 495.64ZM192.847 496.088C191.098 496.088 189.37 495.917 187.663 495.576C185.956 495.235 184.399 494.744 182.991 494.104C181.583 493.421 180.452 492.611 179.599 491.672C178.788 490.691 178.383 489.603 178.383 488.408V480.92H180.175C180.858 485.357 182.223 488.515 184.271 490.392C186.362 492.269 189.199 493.208 192.783 493.208C194.404 493.208 195.812 492.973 197.007 492.504C198.244 492.035 199.183 491.352 199.823 490.456C200.506 489.517 200.847 488.365 200.847 487C200.847 485.165 200.25 483.651 199.055 482.456C197.903 481.219 196.303 479.981 194.255 478.744L186.383 474.008C183.482 472.301 181.434 470.552 180.239 468.76C179.044 466.968 178.447 464.899 178.447 462.552C178.447 459.181 179.727 456.515 182.287 454.552C184.89 452.589 188.388 451.608 192.783 451.608C194.532 451.608 196.26 451.779 197.967 452.12C199.674 452.461 201.231 452.973 202.639 453.656C204.047 454.296 205.156 455.085 205.967 456.024C206.82 456.963 207.247 458.051 207.247 459.288V466.776H205.455C204.73 462.339 203.364 459.181 201.359 457.304C199.354 455.427 196.73 454.488 193.487 454.488C191.951 454.488 190.607 454.744 189.455 455.256C188.346 455.768 187.492 456.493 186.895 457.432C186.298 458.328 185.999 459.416 185.999 460.696C185.999 462.488 186.596 463.939 187.791 465.048C189.028 466.157 190.65 467.309 192.655 468.504L200.527 473.176C203.428 474.883 205.54 476.568 206.863 478.232C208.228 479.853 208.911 481.837 208.911 484.184C208.911 487.853 207.524 490.755 204.751 492.888C201.978 495.021 198.01 496.088 192.847 496.088ZM227.57 495.64C224.925 495.64 222.706 495.235 220.914 494.424C219.165 493.613 217.863 492.333 217.01 490.584C216.157 488.835 215.73 486.595 215.73 483.864V473.24C215.73 471.32 215.453 469.784 214.898 468.632C214.386 467.437 213.17 466.84 211.25 466.84H210.61V464.92H218.29C219.783 464.92 220.935 465.176 221.746 465.688C222.599 466.2 223.197 467.053 223.538 468.248C223.879 469.443 224.05 471.107 224.05 473.24V483.928C224.05 486.147 224.263 487.896 224.69 489.176C225.117 490.456 225.735 491.373 226.546 491.928C227.357 492.483 228.338 492.76 229.49 492.76C230.514 492.76 231.41 492.525 232.178 492.056C232.946 491.587 233.586 491.032 234.098 490.392C234.61 489.709 234.994 489.112 235.25 488.6V464.92H243.57V495H238.13L235.89 492.12H235.57C234.759 493.016 233.693 493.827 232.37 494.552C231.047 495.277 229.447 495.64 227.57 495.64ZM252.494 495V473.24C252.494 471.32 252.216 469.784 251.661 468.632C251.15 467.437 249.934 466.84 248.014 466.84H247.373V464.92H255.054C256.547 464.92 257.699 465.176 258.51 465.688C259.363 466.2 259.96 467.053 260.302 468.248C260.643 469.443 260.814 471.107 260.814 473.24V495H252.494ZM256.654 461.464C255.032 461.464 253.816 460.973 253.006 459.992C252.238 459.011 251.854 457.88 251.854 456.6C251.854 455.491 252.195 454.616 252.878 453.976C253.56 453.336 254.392 453.016 255.374 453.016C256.995 453.016 258.19 453.507 258.958 454.488C259.768 455.469 260.174 456.6 260.174 457.88C260.174 458.989 259.832 459.864 259.15 460.504C258.467 461.144 257.635 461.464 256.654 461.464ZM278.964 495.64C276.063 495.64 273.78 494.851 272.116 493.272C270.495 491.693 269.684 489.368 269.684 486.296V467.8H265.844V464.92H269.684V459.16L272.884 455.32H278.004V464.92H285.044V467.8H278.004V486.68C278.004 489.069 278.281 490.691 278.836 491.544C279.433 492.355 280.265 492.76 281.332 492.76C282.441 492.76 283.423 492.568 284.276 492.184C285.129 491.8 285.833 491.416 286.388 491.032L287.284 492.824C286.431 493.592 285.321 494.253 283.956 494.808C282.591 495.363 280.927 495.64 278.964 495.64ZM304.213 495.64C301.226 495.64 298.624 494.957 296.405 493.592C294.186 492.227 292.48 490.371 291.285 488.024C290.09 485.635 289.493 482.947 289.493 479.96C289.493 476.547 290.112 473.688 291.349 471.384C292.586 469.037 294.272 467.267 296.405 466.072C298.538 464.877 300.928 464.28 303.573 464.28C306.218 464.28 308.608 464.813 310.741 465.88C312.874 466.947 314.56 468.44 315.797 470.36C317.034 472.28 317.653 474.52 317.653 477.08L317.397 481.112H298.133C298.133 485.336 298.773 488.344 300.053 490.136C301.376 491.885 303.082 492.76 305.173 492.76C307.392 492.76 309.184 492.248 310.549 491.224C311.957 490.2 313.216 488.941 314.325 487.448L316.309 488.92C315.712 489.859 314.901 490.861 313.877 491.928C312.896 492.952 311.616 493.827 310.037 494.552C308.501 495.277 306.56 495.64 304.213 495.64ZM298.133 478.232H309.013C309.013 474.008 308.501 471.107 307.477 469.528C306.496 467.949 305.194 467.16 303.573 467.16C302.634 467.16 301.738 467.501 300.885 468.184C300.074 468.867 299.413 470.019 298.901 471.64C298.389 473.219 298.133 475.416 298.133 478.232Z" fill="#1F3B4D"/>
</svg>
